<svg width="1920" height="1080" viewBox="0 0 1920 1080" xmlns="http://www.w3.org/2000/svg"><rect width="1920" height="1080" fill="#f5680a"/><path d="M 0,1080 C 0,1080 0,98 0,98 C 125.4666666666667,85.46666666666667 250.9333333333334,72.93333333333334 435,66 C 619.0666666666666,59.06666666666667 861.7333333333331,57.733333333333334 1119,64 C 1376.2666666666669,70.26666666666667 1648.1333333333334,84.13333333333333 1920,98 C 1920,98 1920,1080 1920,1080 Z" fill="#ffb866" opacity="0.05454545454545454"/><path d="M 0,1080 C 0,1080 0,196 0,196 C 180.93333333333334,184.93333333333334 361.8666666666667,173.86666666666665 532,180 C 702.1333333333333,186.13333333333335 861.4666666666667,209.46666666666667 1091,215 C 1320.5333333333333,220.53333333333333 1620.2666666666667,208.26666666666665 1920,196 C 1920,196 1920,1080 1920,1080 Z" fill="#ffb866" opacity="0.10909090909090909"/><path d="M 0,1080 C 0,1080 0,294 0,294 C 266.1333333333333,303.33333333333337 532.2666666666667,312.6666666666667 778,318 C 1023.7333333333333,323.3333333333333 1249.0666666666668,324.66666666666663 1436,320 C 1622.9333333333332,315.33333333333337 1771.4666666666667,304.6666666666667 1920,294 C 1920,294 1920,1080 1920,1080 Z" fill="#ffb866" opacity="0.16363636363636364"/><path d="M 0,1080 C 0,1080 0,392 0,392 C 264.2666666666667,378.1333333333333 528.5333333333334,364.2666666666667 682,362 C 835.4666666666666,359.7333333333333 878.1333333333332,369.06666666666666 1066,376 C 1253.8666666666668,382.93333333333334 1586.9333333333334,387.4666666666667 1920,392 C 1920,392 1920,1080 1920,1080 Z" fill="#ffb866" opacity="0.21818181818181817"/><path d="M 0,1080 C 0,1080 0,490 0,490 C 129.86666666666667,479.4666666666667 259.73333333333335,468.93333333333334 531,466 C 802.2666666666667,463.06666666666666 1214.9333333333334,467.73333333333335 1470,473 C 1725.0666666666666,478.26666666666665 1822.5333333333333,484.1333333333333 1920,490 C 1920,490 1920,1080 1920,1080 Z" fill="#ffb866" opacity="0.2727272727272727"/><path d="M 0,1080 C 0,1080 0,589 0,589 C 169.46666666666664,581.6666666666666 338.9333333333333,574.3333333333333 591,568 C 843.0666666666667,561.6666666666667 1177.7333333333333,556.3333333333334 1413,560 C 1648.2666666666667,563.6666666666666 1784.1333333333332,576.3333333333333 1920,589 C 1920,589 1920,1080 1920,1080 Z" fill="#ffb866" opacity="0.32727272727272727"/><path d="M 0,1080 C 0,1080 0,687 0,687 C 140.8,682.2 281.6,677.4 456,673 C 630.4,668.6 838.4000000000001,664.5999999999999 1088,667 C 1337.6,669.4000000000001 1628.8,678.2 1920,687 C 1920,687 1920,1080 1920,1080 Z" fill="#ffb866" opacity="0.3818181818181818"/><path d="M 0,1080 C 0,1080 0,785 0,785 C 81.73333333333329,791.9333333333334 163.46666666666658,798.8666666666667 405,790 C 646.5333333333334,781.1333333333333 1047.8666666666668,756.4666666666667 1327,753 C 1606.1333333333332,749.5333333333333 1763.0666666666666,767.2666666666667 1920,785 C 1920,785 1920,1080 1920,1080 Z" fill="#ffb866" opacity="0.43636363636363634"/><path d="M 0,1080 C 0,1080 0,883 0,883 C 214.5333333333333,893.1333333333333 429.0666666666666,903.2666666666667 640,894 C 850.9333333333334,884.7333333333333 1058.2666666666669,856.0666666666667 1271,851 C 1483.7333333333331,845.9333333333333 1701.8666666666666,864.4666666666667 1920,883 C 1920,883 1920,1080 1920,1080 Z" fill="#ffb866" opacity="0.4909090909090909"/><path d="M 0,1080 C 0,1080 0,981 0,981 C 79.33333333333331,958.7333333333333 158.66666666666663,936.4666666666666 418,945 C 677.3333333333334,953.5333333333334 1116.6666666666667,992.8666666666667 1397,1004 C 1677.3333333333333,1015.1333333333333 1798.6666666666665,998.0666666666666 1920,981 C 1920,981 1920,1080 1920,1080 Z" fill="#ffb866" opacity="0.5454545454545454"/></svg>