<svg width="1920" height="1080" viewBox="0 0 1920 1080" xmlns="http://www.w3.org/2000/svg"><rect width="1920" height="1080" fill="#d447f0"/><path d="M 0,1080 C 0,1080 0,90 0,90 C 108.42875552282769,97.73472017673049 216.85751104565537,105.46944035346097 293,94 C 369.1424889543446,82.53055964653903 412.9987113402062,51.856958762886606 500,59 C 587.0012886597938,66.1430412371134 717.1476435935199,111.10272459499265 813,122 C 908.8523564064801,132.89727540500735 970.4107142857142,109.73214285714285 1055,97 C 1139.5892857142858,84.26785714285715 1247.2094992636232,81.96870397643595 1342,89 C 1436.7905007363768,96.03129602356405 1518.7512886597935,112.39304123711341 1634,118 C 1749.2487113402065,123.60695876288659 1897.785346097202,118.45913107511046 1951,112 C 2004.214653902798,105.54086892488954 1962.107326951399,97.77043446244477 1920,90 C 1920,90 1920,1080 1920,1080 Z" fill="#5cb8ff" opacity="0.049999999999999996"/><path d="M 0,1080 C 0,1080 0,180 0,180 C 105.42286450662738,180.79657584683358 210.84572901325475,181.59315169366715 302,178 C 393.15427098674525,174.40684830633285 470.0399484536083,166.42396907216497 544,169 C 617.9600515463917,171.57603092783503 688.994477172312,184.71097201767304 782,192 C 875.005522827688,199.28902798232696 989.9821428571431,200.73214285714286 1084,200 C 1178.0178571428569,199.26785714285714 1251.0769513991163,196.3604565537555 1345,194 C 1438.9230486008837,191.6395434462445 1553.7100515463917,189.82603092783506 1676,180 C 1798.2899484536083,170.17396907216494 1928.0828424153165,152.33541973490426 1970,151 C 2011.9171575846835,149.66458026509574 1965.9585787923418,164.83229013254788 1920,180 C 1920,180 1920,1080 1920,1080 Z" fill="#5cb8ff" opacity="0.09999999999999999"/><path d="M 0,1080 C 0,1080 0,270 0,270 C 122.82032400589102,289.90684830633285 245.64064801178205,309.8136966126657 324,302 C 402.35935198821795,294.1863033873343 436.25773195876286,258.6520618556701 506,253 C 575.7422680412371,247.34793814432987 681.3284241531665,271.5780559646539 798,284 C 914.6715758468335,296.4219440353461 1042.4285714285713,297.0357142857143 1137,301 C 1231.5714285714287,304.9642857142857 1292.9572901325478,312.2790868924889 1370,297 C 1447.0427098674522,281.7209131075111 1539.7422680412371,243.84793814432987 1649,240 C 1758.2577319587629,236.15206185567013 1884.0736377025037,266.3291605301915 1932,277 C 1979.9263622974963,287.6708394698085 1949.9631811487482,278.83541973490424 1920,270 C 1920,270 1920,1080 1920,1080 Z" fill="#5cb8ff" opacity="0.15"/><path d="M 0,1080 C 0,1080 0,360 0,360 C 88.03700294550808,339.884941089838 176.07400589101616,319.769882179676 259,328 C 341.92599410898384,336.230117820324 419.74097938144337,372.805412371134 508,373 C 596.2590206185566,373.194587628866 694.9620765832107,337.00846833578794 798,337 C 901.0379234167893,336.99153166421206 1008.4107142857144,373.1607142857143 1102,387 C 1195.5892857142856,400.8392857142857 1275.3950662739321,392.34867452135495 1352,384 C 1428.6049337260679,375.65132547864505 1502.0090206185569,367.444587628866 1623,369 C 1743.9909793814431,370.555412371134 1912.568851251841,381.8729749631812 1970,382 C 2027.431148748159,382.1270250368188 1973.7155743740796,371.0635125184094 1920,360 C 1920,360 1920,1080 1920,1080 Z" fill="#5cb8ff" opacity="0.19999999999999998"/><path d="M 0,1080 C 0,1080 0,450 0,450 C 86.28460972017675,467.0478645066274 172.5692194403535,484.09572901325475 265,482 C 357.4307805596465,479.90427098674525 456.00773195876286,458.66494845360825 567,444 C 677.9922680412371,429.33505154639175 801.399852724595,421.24447717231226 872,429 C 942.600147275405,436.75552282768774 960.3928571428571,460.35714285714283 1050,467 C 1139.607142857143,473.64285714285717 1301.0287187039764,463.32695139911635 1393,449 C 1484.9712812960236,434.67304860088365 1507.4922680412371,416.3350515463917 1612,425 C 1716.5077319587629,433.6649484536083 1903.002209131075,469.33284241531663 1968,478 C 2032.997790868925,486.66715758468337 1976.4988954344626,468.33357879234165 1920,450 C 1920,450 1920,1080 1920,1080 Z" fill="#5cb8ff" opacity="0.24999999999999997"/><path d="M 0,1080 C 0,1080 0,540 0,540 C 83.64856406480118,545.1623711340206 167.29712812960236,550.3247422680413 252,543 C 336.70287187039764,535.6752577319587 422.4600515463918,515.8634020618556 514,511 C 605.5399484536082,506.13659793814435 702.8626656848306,516.2216494845361 805,514 C 907.1373343151694,511.77835051546384 1014.0892857142856,497.2499999999999 1113,507 C 1211.9107142857144,516.7500000000001 1302.7801914580266,550.778350515464 1389,560 C 1475.2198085419734,569.221649484536 1556.789948453608,553.6365979381443 1661,542 C 1765.210051546392,530.3634020618557 1892.0600147275406,522.6752577319588 1939,523 C 1985.9399852724594,523.3247422680412 1952.9699926362296,531.6623711340205 1920,540 C 1920,540 1920,1080 1920,1080 Z" fill="#5cb8ff" opacity="0.3"/><path d="M 0,1080 C 0,1080 0,630 0,630 C 97.53479381443299,615.8234536082474 195.06958762886597,601.6469072164948 277,614 C 358.930412371134,626.3530927835052 425.2564432989691,665.2358247422679 513,658 C 600.7435567010309,650.7641752577321 709.9046391752578,597.4097938144331 803,598 C 896.0953608247422,598.5902061855669 973.125,653.125 1076,660 C 1178.875,666.875 1307.5953608247423,626.090206185567 1399,611 C 1490.4046391752577,595.909793814433 1544.4935567010307,606.514175257732 1647,612 C 1749.5064432989693,617.485824742268 1900.4304123711343,617.8530927835052 1954,620 C 2007.5695876288657,622.1469072164948 1963.7847938144328,626.0734536082474 1920,630 C 1920,630 1920,1080 1920,1080 Z" fill="#5cb8ff" opacity="0.35"/><path d="M 0,1080 C 0,1080 0,720 0,720 C 84.88236377025038,699.7326951399117 169.76472754050076,679.4653902798234 259,689 C 348.23527245949924,698.5346097201766 441.8234536082474,737.8711340206185 544,741 C 646.1765463917526,744.1288659793815 756.9414580265097,711.0500736377024 841,701 C 925.0585419734903,690.9499263622976 982.4107142857142,703.9285714285714 1056,714 C 1129.5892857142858,724.0714285714286 1219.4156848306334,731.2356406480118 1320,729 C 1420.5843151693666,726.7643593519882 1531.9265463917525,715.1288659793814 1633,705 C 1734.0734536082475,694.8711340206186 1824.8781296023565,686.2488954344625 1871,689 C 1917.1218703976435,691.7511045655375 1918.5609351988219,705.8755522827687 1920,720 C 1920,720 1920,1080 1920,1080 Z" fill="#5cb8ff" opacity="0.39999999999999997"/><path d="M 0,1080 C 0,1080 0,810 0,810 C 102.74926362297498,827.3151693667157 205.49852724594996,844.6303387334316 291,838 C 376.50147275405004,831.3696612665684 444.7551546391752,800.7938144329897 537,796 C 629.2448453608248,791.2061855670103 745.4808541973491,812.1944035346097 836,821 C 926.5191458026509,829.8055964653903 991.3214285714287,826.4285714285714 1085,821 C 1178.6785714285713,815.5714285714286 1301.2334315169367,808.0913107511045 1401,814 C 1500.7665684830633,819.9086892488955 1577.7448453608245,839.2061855670103 1670,839 C 1762.2551546391755,838.7938144329897 1869.7871870397644,819.0839469808542 1914,811 C 1958.2128129602356,802.9160530191458 1939.1064064801178,806.4580265095728 1920,810 C 1920,810 1920,1080 1920,1080 Z" fill="#5cb8ff" opacity="0.44999999999999996"/><path d="M 0,1080 C 0,1080 0,900 0,900 C 99.41034609720177,917.2638070692194 198.82069219440353,934.5276141384389 280,923 C 361.17930780559647,911.4723858615611 424.12757731958754,871.1533505154638 527,869 C 629.8724226804125,866.8466494845362 772.6689985272459,902.8589837997055 866,913 C 959.3310014727541,923.1410162002945 1003.1964285714287,907.4107142857142 1091,903 C 1178.8035714285713,898.5892857142858 1310.5452871870398,905.4981590574374 1392,909 C 1473.4547128129602,912.5018409425626 1504.6224226804127,912.5966494845359 1602,914 C 1699.3775773195873,915.4033505154641 1862.9650220913106,918.1152430044183 1927,916 C 1991.0349779086894,913.8847569955817 1955.5174889543446,906.9423784977909 1920,900 C 1920,900 1920,1080 1920,1080 Z" fill="#5cb8ff" opacity="0.49999999999999994"/><path d="M 0,1080 C 0,1080 0,990 0,990 C 81.76877761413843,976.2126288659794 163.53755522827686,962.4252577319587 251,966 C 338.46244477172314,969.5747422680413 431.6185567010309,990.5115979381442 537,990 C 642.3814432989691,989.4884020618558 759.9882179675994,967.5283505154639 862,959 C 964.0117820324006,950.4716494845361 1050.4285714285713,955.3750000000001 1143,965 C 1235.5714285714287,974.6249999999999 1334.297496318115,988.9716494845361 1420,988 C 1505.702503681885,987.0283505154639 1578.3814432989689,970.7384020618557 1665,972 C 1751.6185567010311,973.2615979381443 1852.1767304860089,992.0747422680412 1897,998 C 1941.8232695139911,1003.9252577319588 1930.9116347569957,996.9626288659795 1920,990 C 1920,990 1920,1080 1920,1080 Z" fill="#5cb8ff" opacity="0.5499999999999999"/></svg>