<svg width="1920" height="1080" viewBox="0 0 1920 1080" xmlns="http://www.w3.org/2000/svg"><rect width="1920" height="1080" fill="#eecc20"/><path d="M 0,1080 C 0,1080 0,98 0,98 C 163.06666666666666,90.53333333333333 326.1333333333333,83.06666666666668 546,92 C 765.8666666666667,100.93333333333332 1042.5333333333333,126.26666666666665 1281,130 C 1519.4666666666667,133.73333333333335 1719.7333333333333,115.86666666666667 1920,98 C 1920,98 1920,1080 1920,1080 Z" fill="#f59324" opacity="0.05454545454545454"/><path d="M 0,1080 C 0,1080 0,196 0,196 C 154.40000000000003,187.33333333333334 308.80000000000007,178.66666666666669 483,176 C 657.1999999999999,173.33333333333331 851.2,176.66666666666666 1094,181 C 1336.8,185.33333333333334 1628.4,190.66666666666669 1920,196 C 1920,196 1920,1080 1920,1080 Z" fill="#f59324" opacity="0.10909090909090909"/><path d="M 0,1080 C 0,1080 0,294 0,294 C 353.73333333333335,295.73333333333335 707.4666666666667,297.46666666666664 873,290 C 1038.5333333333333,282.53333333333336 1015.8666666666668,265.8666666666667 1159,265 C 1302.1333333333332,264.1333333333333 1611.0666666666666,279.06666666666666 1920,294 C 1920,294 1920,1080 1920,1080 Z" fill="#f59324" opacity="0.16363636363636364"/><path d="M 0,1080 C 0,1080 0,392 0,392 C 181.06666666666666,397.73333333333335 362.1333333333333,403.46666666666664 537,396 C 711.8666666666667,388.53333333333336 880.5333333333333,367.8666666666667 1110,365 C 1339.4666666666667,362.1333333333333 1629.7333333333333,377.06666666666666 1920,392 C 1920,392 1920,1080 1920,1080 Z" fill="#f59324" opacity="0.21818181818181817"/><path d="M 0,1080 C 0,1080 0,490 0,490 C 329.3333333333333,512.2666666666667 658.6666666666666,534.5333333333333 824,523 C 989.3333333333334,511.46666666666664 990.6666666666667,466.1333333333333 1146,455 C 1301.3333333333333,443.8666666666667 1610.6666666666665,466.93333333333334 1920,490 C 1920,490 1920,1080 1920,1080 Z" fill="#f59324" opacity="0.2727272727272727"/><path d="M 0,1080 C 0,1080 0,589 0,589 C 276.5333333333333,592.7333333333333 553.0666666666666,596.4666666666666 701,591 C 848.9333333333334,585.5333333333334 868.2666666666669,570.8666666666667 1050,569 C 1231.7333333333331,567.1333333333333 1575.8666666666666,578.0666666666666 1920,589 C 1920,589 1920,1080 1920,1080 Z" fill="#f59324" opacity="0.32727272727272727"/><path d="M 0,1080 C 0,1080 0,687 0,687 C 200.66666666666663,703 401.33333333333326,719 574,714 C 746.6666666666667,709 891.3333333333335,683 1111,675 C 1330.6666666666665,667 1625.3333333333333,677 1920,687 C 1920,687 1920,1080 1920,1080 Z" fill="#f59324" opacity="0.3818181818181818"/><path d="M 0,1080 C 0,1080 0,785 0,785 C 298.93333333333334,787 597.8666666666667,789 776,788 C 954.1333333333333,787 1011.4666666666667,783 1182,782 C 1352.5333333333333,781 1636.2666666666667,783 1920,785 C 1920,785 1920,1080 1920,1080 Z" fill="#f59324" opacity="0.43636363636363634"/><path d="M 0,1080 C 0,1080 0,883 0,883 C 111.19999999999993,873.8 222.39999999999986,864.6 485,871 C 747.6000000000001,877.4 1161.6000000000001,899.4000000000001 1426,904 C 1690.3999999999999,908.5999999999999 1805.1999999999998,895.8 1920,883 C 1920,883 1920,1080 1920,1080 Z" fill="#f59324" opacity="0.4909090909090909"/><path d="M 0,1080 C 0,1080 0,981 0,981 C 309.8666666666667,983.1333333333333 619.7333333333333,985.2666666666667 775,980 C 930.2666666666667,974.7333333333333 930.9333333333334,962.0666666666667 1096,961 C 1261.0666666666666,959.9333333333333 1590.5333333333333,970.4666666666667 1920,981 C 1920,981 1920,1080 1920,1080 Z" fill="#f59324" opacity="0.5454545454545454"/></svg>