<svg width="1920" height="1080" viewBox="0 0 1920 1080" xmlns="http://www.w3.org/2000/svg"><rect width="1920" height="1080" fill="#eac02a"/><path d="M 0,1080 C 0,1080 0,98 0,98 C 212.13333333333333,93.6 424.26666666666665,89.2 679,86 C 933.7333333333333,82.8 1231.0666666666666,80.8 1445,83 C 1658.9333333333334,85.2 1789.4666666666667,91.6 1920,98 C 1920,98 1920,1080 1920,1080 Z" fill="#f2ff42" opacity="0.05454545454545454"/><path d="M 0,1080 C 0,1080 0,196 0,196 C 271.20000000000005,190.93333333333334 542.4000000000001,185.86666666666665 796,192 C 1049.6,198.13333333333335 1285.6,215.46666666666667 1470,218 C 1654.4,220.53333333333333 1787.2,208.26666666666665 1920,196 C 1920,196 1920,1080 1920,1080 Z" fill="#f2ff42" opacity="0.10909090909090909"/><path d="M 0,1080 C 0,1080 0,294 0,294 C 221.0666666666666,315.4666666666667 442.1333333333332,336.93333333333334 672,331 C 901.8666666666668,325.06666666666666 1140.5333333333335,291.73333333333335 1350,281 C 1559.4666666666665,270.26666666666665 1739.7333333333331,282.1333333333333 1920,294 C 1920,294 1920,1080 1920,1080 Z" fill="#f2ff42" opacity="0.16363636363636364"/><path d="M 0,1080 C 0,1080 0,392 0,392 C 189.59999999999997,390.79999999999995 379.19999999999993,389.59999999999997 536,389 C 692.8000000000001,388.40000000000003 816.8000000000002,388.40000000000003 1042,389 C 1267.1999999999998,389.59999999999997 1593.6,390.79999999999995 1920,392 C 1920,392 1920,1080 1920,1080 Z" fill="#f2ff42" opacity="0.21818181818181817"/><path d="M 0,1080 C 0,1080 0,490 0,490 C 255.06666666666666,478.79999999999995 510.1333333333333,467.59999999999997 713,471 C 915.8666666666667,474.40000000000003 1066.5333333333333,492.4 1259,498 C 1451.4666666666667,503.6 1685.7333333333333,496.8 1920,490 C 1920,490 1920,1080 1920,1080 Z" fill="#f2ff42" opacity="0.2727272727272727"/><path d="M 0,1080 C 0,1080 0,589 0,589 C 109.86666666666667,589.2666666666667 219.73333333333335,589.5333333333334 505,589 C 790.2666666666667,588.4666666666666 1250.9333333333334,587.1333333333333 1516,587 C 1781.0666666666666,586.8666666666667 1850.5333333333333,587.9333333333334 1920,589 C 1920,589 1920,1080 1920,1080 Z" fill="#f2ff42" opacity="0.32727272727272727"/><path d="M 0,1080 C 0,1080 0,687 0,687 C 194.66666666666669,676.5999999999999 389.33333333333337,666.1999999999999 662,674 C 934.6666666666666,681.8000000000001 1285.3333333333333,707.8000000000001 1508,713 C 1730.6666666666667,718.1999999999999 1825.3333333333335,702.5999999999999 1920,687 C 1920,687 1920,1080 1920,1080 Z" fill="#f2ff42" opacity="0.3818181818181818"/><path d="M 0,1080 C 0,1080 0,785 0,785 C 174.53333333333336,786.7333333333333 349.0666666666667,788.4666666666666 523,782 C 696.9333333333333,775.5333333333334 870.2666666666667,760.8666666666668 1103,760 C 1335.7333333333333,759.1333333333332 1627.8666666666668,772.0666666666666 1920,785 C 1920,785 1920,1080 1920,1080 Z" fill="#f2ff42" opacity="0.43636363636363634"/><path d="M 0,1080 C 0,1080 0,883 0,883 C 248.40000000000003,894.0666666666666 496.80000000000007,905.1333333333333 722,912 C 947.1999999999999,918.8666666666667 1149.2,921.5333333333334 1345,916 C 1540.8,910.4666666666666 1730.4,896.7333333333333 1920,883 C 1920,883 1920,1080 1920,1080 Z" fill="#f2ff42" opacity="0.4909090909090909"/><path d="M 0,1080 C 0,1080 0,981 0,981 C 334,989.6666666666666 668,998.3333333333333 861,990 C 1054,981.6666666666667 1106,956.3333333333334 1259,952 C 1412,947.6666666666666 1666,964.3333333333333 1920,981 C 1920,981 1920,1080 1920,1080 Z" fill="#f2ff42" opacity="0.5454545454545454"/></svg>