<svg width="1920" height="1080" viewBox="0 0 1920 1080" xmlns="http://www.w3.org/2000/svg"><rect width="1920" height="1080" fill="#ffb866"/><path d="M 0,1080 C 0,1080 0,98 0,98 C 228.8,119.06666666666666 457.6,140.13333333333333 720,129 C 982.4,117.86666666666666 1278.4,74.53333333333333 1484,64 C 1689.6,53.46666666666667 1804.8,75.73333333333333 1920,98 C 1920,98 1920,1080 1920,1080 Z" fill="#f5680a" opacity="0.05454545454545454"/><path d="M 0,1080 C 0,1080 0,196 0,196 C 254.13333333333333,183.86666666666667 508.26666666666665,171.73333333333332 750,181 C 991.7333333333333,190.26666666666668 1221.0666666666668,220.93333333333337 1414,227 C 1606.9333333333332,233.06666666666663 1763.4666666666667,214.5333333333333 1920,196 C 1920,196 1920,1080 1920,1080 Z" fill="#f5680a" opacity="0.10909090909090909"/><path d="M 0,1080 C 0,1080 0,294 0,294 C 280.8,277.3333333333333 561.6,260.66666666666663 787,263 C 1012.4,265.33333333333337 1182.4,286.6666666666667 1362,295 C 1541.6,303.3333333333333 1730.8,298.66666666666663 1920,294 C 1920,294 1920,1080 1920,1080 Z" fill="#f5680a" opacity="0.16363636363636364"/><path d="M 0,1080 C 0,1080 0,392 0,392 C 214.2666666666667,390.6666666666667 428.5333333333334,389.33333333333337 647,391 C 865.4666666666666,392.66666666666663 1088.1333333333334,397.3333333333333 1301,398 C 1513.8666666666666,398.6666666666667 1716.9333333333334,395.33333333333337 1920,392 C 1920,392 1920,1080 1920,1080 Z" fill="#f5680a" opacity="0.21818181818181817"/><path d="M 0,1080 C 0,1080 0,490 0,490 C 318.2666666666667,467.8666666666667 636.5333333333334,445.7333333333333 780,454 C 923.4666666666666,462.2666666666667 892.1333333333334,500.9333333333334 1053,512 C 1213.8666666666666,523.0666666666666 1566.9333333333334,506.5333333333333 1920,490 C 1920,490 1920,1080 1920,1080 Z" fill="#f5680a" opacity="0.2727272727272727"/><path d="M 0,1080 C 0,1080 0,589 0,589 C 211.86666666666667,583.4000000000001 423.73333333333335,577.8000000000001 593,587 C 762.2666666666667,596.1999999999999 888.9333333333334,620.2 1103,623 C 1317.0666666666666,625.8 1618.5333333333333,607.4 1920,589 C 1920,589 1920,1080 1920,1080 Z" fill="#f5680a" opacity="0.32727272727272727"/><path d="M 0,1080 C 0,1080 0,687 0,687 C 267.0666666666666,689.8 534.1333333333332,692.6 736,694 C 937.8666666666668,695.4 1074.5333333333335,695.4 1261,694 C 1447.4666666666665,692.6 1683.7333333333331,689.8 1920,687 C 1920,687 1920,1080 1920,1080 Z" fill="#f5680a" opacity="0.3818181818181818"/><path d="M 0,1080 C 0,1080 0,785 0,785 C 296.9333333333333,804.8666666666667 593.8666666666666,824.7333333333333 852,816 C 1110.1333333333334,807.2666666666667 1329.4666666666667,769.9333333333333 1501,760 C 1672.5333333333333,750.0666666666667 1796.2666666666667,767.5333333333333 1920,785 C 1920,785 1920,1080 1920,1080 Z" fill="#f5680a" opacity="0.43636363636363634"/><path d="M 0,1080 C 0,1080 0,883 0,883 C 168.53333333333336,891.5333333333333 337.0666666666667,900.0666666666667 599,903 C 860.9333333333333,905.9333333333333 1216.2666666666667,903.2666666666667 1452,899 C 1687.7333333333333,894.7333333333333 1803.8666666666668,888.8666666666667 1920,883 C 1920,883 1920,1080 1920,1080 Z" fill="#f5680a" opacity="0.4909090909090909"/><path d="M 0,1080 C 0,1080 0,981 0,981 C 217.06666666666666,967.1333333333333 434.1333333333333,953.2666666666667 703,948 C 971.8666666666667,942.7333333333333 1292.5333333333333,946.0666666666667 1504,953 C 1715.4666666666667,959.9333333333333 1817.7333333333333,970.4666666666667 1920,981 C 1920,981 1920,1080 1920,1080 Z" fill="#f5680a" opacity="0.5454545454545454"/></svg>