<svg width="1920" height="1080" viewBox="0 0 1920 1080" xmlns="http://www.w3.org/2000/svg"><rect width="1920" height="1080" fill="#ffee05"/><path d="M 0,1080 C 0,1080 0,98 0,98 C 141.86666666666667,107.33333333333334 283.73333333333335,116.66666666666667 464,117 C 644.2666666666667,117.33333333333333 862.9333333333334,108.66666666666666 1112,104 C 1361.0666666666666,99.33333333333334 1640.5333333333333,98.66666666666667 1920,98 C 1920,98 1920,1080 1920,1080 Z" fill="#ff8652" opacity="0.05454545454545454"/><path d="M 0,1080 C 0,1080 0,196 0,196 C 303.8666666666667,189.33333333333331 607.7333333333333,182.66666666666666 847,188 C 1086.2666666666667,193.33333333333334 1260.9333333333334,210.66666666666669 1429,214 C 1597.0666666666666,217.33333333333331 1758.5333333333333,206.66666666666666 1920,196 C 1920,196 1920,1080 1920,1080 Z" fill="#ff8652" opacity="0.10909090909090909"/><path d="M 0,1080 C 0,1080 0,294 0,294 C 190.2666666666667,303.73333333333335 380.5333333333334,313.46666666666664 555,312 C 729.4666666666666,310.53333333333336 888.1333333333332,297.8666666666667 1113,293 C 1337.8666666666668,288.1333333333333 1628.9333333333334,291.06666666666666 1920,294 C 1920,294 1920,1080 1920,1080 Z" fill="#ff8652" opacity="0.16363636363636364"/><path d="M 0,1080 C 0,1080 0,392 0,392 C 258,411.3333333333333 516,430.66666666666663 773,429 C 1030,427.33333333333337 1286,404.66666666666674 1477,395 C 1668,385.33333333333326 1794,388.66666666666663 1920,392 C 1920,392 1920,1080 1920,1080 Z" fill="#ff8652" opacity="0.21818181818181817"/><path d="M 0,1080 C 0,1080 0,490 0,490 C 312.2666666666667,498 624.5333333333334,506 802,498 C 979.4666666666666,490 1022.1333333333332,465.99999999999994 1186,462 C 1349.8666666666668,458.00000000000006 1634.9333333333334,474 1920,490 C 1920,490 1920,1080 1920,1080 Z" fill="#ff8652" opacity="0.2727272727272727"/><path d="M 0,1080 C 0,1080 0,589 0,589 C 279.06666666666666,568.3333333333334 558.1333333333333,547.6666666666667 723,554 C 887.8666666666667,560.3333333333333 938.5333333333333,593.6666666666666 1119,604 C 1299.4666666666667,614.3333333333334 1609.7333333333333,601.6666666666667 1920,589 C 1920,589 1920,1080 1920,1080 Z" fill="#ff8652" opacity="0.32727272727272727"/><path d="M 0,1080 C 0,1080 0,687 0,687 C 295.73333333333335,665.2666666666667 591.4666666666667,643.5333333333334 846,651 C 1100.5333333333333,658.4666666666666 1313.8666666666666,695.1333333333333 1486,706 C 1658.1333333333334,716.8666666666667 1789.0666666666666,701.9333333333334 1920,687 C 1920,687 1920,1080 1920,1080 Z" fill="#ff8652" opacity="0.3818181818181818"/><path d="M 0,1080 C 0,1080 0,785 0,785 C 134.40000000000003,803.6666666666667 268.80000000000007,822.3333333333334 450,819 C 631.1999999999999,815.6666666666666 859.2,790.3333333333333 1112,781 C 1364.8,771.6666666666667 1642.4,778.3333333333334 1920,785 C 1920,785 1920,1080 1920,1080 Z" fill="#ff8652" opacity="0.43636363636363634"/><path d="M 0,1080 C 0,1080 0,883 0,883 C 79.0666666666666,871.9333333333334 158.1333333333332,860.8666666666667 416,858 C 673.8666666666668,855.1333333333333 1110.5333333333335,860.4666666666666 1391,866 C 1671.4666666666665,871.5333333333334 1795.7333333333331,877.2666666666667 1920,883 C 1920,883 1920,1080 1920,1080 Z" fill="#ff8652" opacity="0.4909090909090909"/><path d="M 0,1080 C 0,1080 0,981 0,981 C 286.5333333333334,987.9333333333334 573.0666666666668,994.8666666666667 804,1000 C 1034.9333333333332,1005.1333333333333 1210.2666666666667,1008.4666666666667 1387,1005 C 1563.7333333333333,1001.5333333333333 1741.8666666666668,991.2666666666667 1920,981 C 1920,981 1920,1080 1920,1080 Z" fill="#ff8652" opacity="0.5454545454545454"/></svg>