<svg width="1920" height="1080" viewBox="0 0 1920 1080" xmlns="http://www.w3.org/2000/svg"><rect width="1920" height="1080" fill="#5cb8ff"/><path d="M 0,1080 C 0,1080 0,90 0,90 C 111.03884388807072,84.9300441826215 222.07768777614143,79.860088365243 317,86 C 411.92231222385857,92.139911634757 490.7280927835051,109.48969072164948 573,111 C 655.2719072164949,112.51030927835052 741.0099410898381,98.18114874815906 830,99 C 918.9900589101619,99.81885125184094 1011.2321428571427,115.78571428571429 1100,116 C 1188.7678571428573,116.21428571428571 1274.0614874815906,100.6759941089838 1352,93 C 1429.9385125184094,85.3240058910162 1500.521907216495,85.51030927835052 1613,87 C 1725.478092783505,88.48969072164948 1879.85088365243,91.28276877761414 1938,92 C 1996.14911634757,92.71723122238586 1958.0745581737851,91.35861561119293 1920,90 C 1920,90 1920,1080 1920,1080 Z" fill="#d447f0" opacity="0.049999999999999996"/><path d="M 0,1080 C 0,1080 0,180 0,180 C 73.99558173784979,168.2048969072165 147.99116347569958,156.409793814433 235,160 C 322.0088365243004,163.590206185567 422.03092783505156,182.56572164948454 532,179 C 641.9690721649484,175.43427835051546 761.8851251840941,149.32731958762886 864,146 C 966.1148748159059,142.67268041237114 1050.4285714285713,162.125 1141,181 C 1231.5714285714287,199.875 1328.4005891016202,218.17268041237114 1413,206 C 1497.5994108983798,193.82731958762886 1569.9690721649483,151.18427835051546 1661,147 C 1752.0309278350517,142.81572164948454 1861.7231222385863,177.090206185567 1908,189 C 1954.2768777614137,200.909793814433 1937.1384388807069,190.4548969072165 1920,180 C 1920,180 1920,1080 1920,1080 Z" fill="#d447f0" opacity="0.09999999999999999"/><path d="M 0,1080 C 0,1080 0,270 0,270 C 92.8954344624448,267.92286450662743 185.7908689248896,265.8457290132548 278,260 C 370.2091310751104,254.1542709867452 461.7319587628865,244.53994845360822 547,245 C 632.2680412371135,245.46005154639178 711.2812960235642,255.99447717231226 820,258 C 928.7187039764358,260.00552282768774 1067.142857142857,253.4821428571429 1145,262 C 1222.857142857143,270.5178571428571 1240.1472754050073,294.07695139911635 1326,299 C 1411.8527245949927,303.92304860088365 1566.2680412371135,290.21005154639175 1693,286 C 1819.7319587628865,281.78994845360825 1918.7805596465391,287.0828424153167 1952,286 C 1985.2194403534609,284.9171575846833 1952.6097201767304,277.45857879234165 1920,270 C 1920,270 1920,1080 1920,1080 Z" fill="#d447f0" opacity="0.15"/><path d="M 0,1080 C 0,1080 0,360 0,360 C 88.45581737849778,367.20765832106036 176.91163475699557,374.41531664212073 261,370 C 345.08836524300443,365.58468335787927 424.80927835051557,349.54639175257734 532,341 C 639.1907216494844,332.45360824742266 773.8512518409426,331.39911634756993 857,337 C 940.1487481590574,342.60088365243007 971.7857142857142,354.8571428571429 1064,353 C 1156.2142857142858,351.1428571428571 1309.0058910162002,335.1723122238586 1410,343 C 1510.9941089837998,350.8276877761414 1560.1907216494847,382.45360824742266 1639,381 C 1717.8092783505153,379.54639175257734 1826.2312223858614,345.01325478645066 1878,336 C 1929.7687776141386,326.98674521354934 1924.8843888070692,343.49337260677464 1920,360 C 1920,360 1920,1080 1920,1080 Z" fill="#d447f0" opacity="0.19999999999999998"/><path d="M 0,1080 C 0,1080 0,450 0,450 C 87.90187776141383,463.9300441826215 175.80375552282766,477.860088365243 259,477 C 342.19624447717234,476.139911634757 420.6868556701031,460.48969072164954 518,460 C 615.3131443298969,459.51030927835046 731.4488217967601,474.18114874815905 815,469 C 898.5511782032399,463.81885125184095 949.5178571428571,438.7857142857143 1046,440 C 1142.482142857143,441.2142857142857 1284.4797496318113,468.6759941089838 1380,469 C 1475.5202503681887,469.3240058910162 1524.563144329897,442.5103092783505 1631,438 C 1737.436855670103,433.4896907216495 1901.267673048601,451.28276877761414 1959,457 C 2016.732326951399,462.71723122238586 1968.3661634756995,456.35861561119293 1920,450 C 1920,450 1920,1080 1920,1080 Z" fill="#d447f0" opacity="0.24999999999999997"/><path d="M 0,1080 C 0,1080 0,540 0,540 C 84.41476435935198,526.2411634756995 168.82952871870395,512.4823269513992 264,515 C 359.17047128129605,517.5176730486008 465.096649484536,536.3118556701031 554,548 C 642.903350515464,559.6881443298969 714.7838733431518,564.2702503681886 799,557 C 883.2161266568482,549.7297496318114 979.7678571428571,530.6071428571428 1078,535 C 1176.232142857143,539.3928571428572 1276.1446980854198,567.3011782032402 1356,571 C 1435.8553019145802,574.6988217967598 1495.6533505154637,554.1881443298968 1613,545 C 1730.3466494845363,535.8118556701032 1905.2418998527248,537.9462444771724 1966,539 C 2026.7581001472752,540.0537555228276 1973.3790500736377,540.0268777614137 1920,540 C 1920,540 1920,1080 1920,1080 Z" fill="#d447f0" opacity="0.3"/><path d="M 0,1080 C 0,1080 0,630 0,630 C 116.39690721649484,620.831001472754 232.79381443298968,611.6620029455081 310,617 C 387.2061855670103,622.3379970544919 425.2216494845361,642.1829896907217 516,646 C 606.7783505154639,649.8170103092783 750.319587628866,637.6060382916053 846,634 C 941.680412371134,630.3939617083947 989.5000000000002,635.3928571428573 1085,638 C 1180.4999999999998,640.6071428571427 1323.680412371134,640.8225331369661 1422,631 C 1520.319587628866,621.1774668630339 1573.7783505154641,601.3170103092783 1669,596 C 1764.2216494845359,590.6829896907217 1901.2061855670102,599.9094256259206 1950,608 C 1998.7938144329898,616.0905743740794 1959.396907216495,623.0452871870398 1920,630 C 1920,630 1920,1080 1920,1080 Z" fill="#d447f0" opacity="0.35"/><path d="M 0,1080 C 0,1080 0,720 0,720 C 115.12463181148749,699.4782768777613 230.24926362297498,678.9565537555228 325,688 C 419.750736377025,697.0434462444772 494.12757731958766,735.6520618556701 564,743 C 633.8724226804123,750.3479381443299 699.2404270986743,726.4351988217967 794,711 C 888.7595729013257,695.5648011782033 1012.9107142857144,688.6071428571429 1121,692 C 1229.0892857142856,695.3928571428571 1321.1167157584684,709.1362297496318 1404,717 C 1486.8832842415316,724.8637702503682 1560.6224226804125,726.8479381443299 1650,729 C 1739.3775773195875,731.1520618556701 1844.3935935198822,733.4720176730486 1892,732 C 1939.6064064801178,730.5279823269514 1929.8032032400588,725.2639911634757 1920,720 C 1920,720 1920,1080 1920,1080 Z" fill="#d447f0" opacity="0.39999999999999997"/><path d="M 0,1080 C 0,1080 0,810 0,810 C 113.53019145802651,795.7314064801178 227.06038291605302,781.4628129602357 307,787 C 386.939617083947,792.5371870397643 433.28865979381453,817.8801546391752 508,816 C 582.7113402061855,814.1198453608248 685.7849779086893,785.0165684830633 780,790 C 874.2150220913107,794.9834315169367 959.5714285714287,834.0535714285714 1051,832 C 1142.4285714285713,829.9464285714286 1239.9293078055964,786.769145802651 1348,787 C 1456.0706921944036,787.230854197349 1574.7113402061855,830.8698453608247 1687,835 C 1799.2886597938145,839.1301546391753 1905.2253313696615,803.7514727540502 1943,793 C 1980.7746686303385,782.2485272459498 1950.3873343151693,796.1242636229749 1920,810 C 1920,810 1920,1080 1920,1080 Z" fill="#d447f0" opacity="0.44999999999999996"/><path d="M 0,1080 C 0,1080 0,900 0,900 C 93.10751104565537,897.8068851251842 186.21502209131074,895.6137702503682 284,903 C 381.78497790868926,910.3862297496318 484.24742268041234,927.3518041237113 579,928 C 673.7525773195877,928.6481958762887 760.7952871870398,912.9790132547864 836,904 C 911.2047128129602,895.0209867452136 974.5714285714287,892.7321428571429 1066,899 C 1157.4285714285713,905.2678571428571 1276.9189985272462,920.0924153166421 1368,927 C 1459.0810014727538,933.9075846833579 1521.7525773195873,932.8981958762886 1619,922 C 1716.2474226804127,911.1018041237114 1848.0706921944038,890.3148011782033 1904,885 C 1959.9293078055962,879.6851988217967 1939.964653902798,889.8425994108984 1920,900 C 1920,900 1920,1080 1920,1080 Z" fill="#d447f0" opacity="0.49999999999999994"/><path d="M 0,1080 C 0,1080 0,990 0,990 C 87.99374079528721,998.3470176730486 175.98748159057442,1006.6940353460972 277,1003 C 378.0125184094256,999.3059646539028 492.04381443298973,983.5708762886596 593,973 C 693.9561855670103,962.4291237113404 781.8372606774668,957.0224594992636 872,970 C 962.1627393225332,982.9775405007364 1054.607142857143,1014.3392857142858 1141,1022 C 1227.392857142857,1029.6607142857142 1307.734167893962,1013.6203976435934 1390,1003 C 1472.265832106038,992.3796023564066 1556.45618556701,987.1791237113401 1645,992 C 1733.54381443299,996.8208762886599 1826.441089837997,1011.6631075110457 1873,1013 C 1919.558910162003,1014.3368924889543 1919.7794550810015,1002.1684462444771 1920,990 C 1920,990 1920,1080 1920,1080 Z" fill="#d447f0" opacity="0.5499999999999999"/></svg>