<svg width="1920" height="1080" viewBox="0 0 1920 1080" xmlns="http://www.w3.org/2000/svg"><rect width="1920" height="1080" fill="#f5680a"/><path d="M 0,1080 C 0,1080 0,98 0,98 C 206.53333333333336,111.46666666666667 413.0666666666667,124.93333333333332 626,126 C 838.9333333333333,127.06666666666668 1058.2666666666667,115.73333333333333 1275,109 C 1491.7333333333333,102.26666666666667 1705.8666666666668,100.13333333333333 1920,98 C 1920,98 1920,1080 1920,1080 Z" fill="#f59f0a" opacity="0.05454545454545454"/><path d="M 0,1080 C 0,1080 0,196 0,196 C 278.40000000000003,211.60000000000002 556.8000000000001,227.20000000000002 730,218 C 903.1999999999999,208.79999999999998 971.2,174.8 1152,167 C 1332.8,159.2 1626.4,177.6 1920,196 C 1920,196 1920,1080 1920,1080 Z" fill="#f59f0a" opacity="0.10909090909090909"/><path d="M 0,1080 C 0,1080 0,294 0,294 C 274.5333333333334,279.2 549.0666666666668,264.4 791,262 C 1032.9333333333332,259.6 1242.2666666666667,269.6 1425,277 C 1607.7333333333333,284.4 1763.8666666666668,289.2 1920,294 C 1920,294 1920,1080 1920,1080 Z" fill="#f59f0a" opacity="0.16363636363636364"/><path d="M 0,1080 C 0,1080 0,392 0,392 C 169.59999999999997,392.1333333333333 339.19999999999993,392.2666666666667 571,390 C 802.8000000000001,387.7333333333333 1096.8,383.06666666666666 1332,383 C 1567.2,382.93333333333334 1743.6,387.4666666666667 1920,392 C 1920,392 1920,1080 1920,1080 Z" fill="#f59f0a" opacity="0.21818181818181817"/><path d="M 0,1080 C 0,1080 0,490 0,490 C 202.53333333333336,490.93333333333334 405.0666666666667,491.8666666666667 607,494 C 808.9333333333333,496.1333333333333 1010.2666666666667,499.46666666666664 1229,499 C 1447.7333333333333,498.53333333333336 1683.8666666666668,494.26666666666665 1920,490 C 1920,490 1920,1080 1920,1080 Z" fill="#f59f0a" opacity="0.2727272727272727"/><path d="M 0,1080 C 0,1080 0,589 0,589 C 260.2666666666667,577 520.5333333333334,565 670,563 C 819.4666666666666,561 858.1333333333332,569 1048,575 C 1237.8666666666668,581 1578.9333333333334,585 1920,589 C 1920,589 1920,1080 1920,1080 Z" fill="#f59f0a" opacity="0.32727272727272727"/><path d="M 0,1080 C 0,1080 0,687 0,687 C 152.53333333333336,699.2666666666667 305.0666666666667,711.5333333333334 540,702 C 774.9333333333333,692.4666666666666 1092.2666666666667,661.1333333333333 1336,655 C 1579.7333333333333,648.8666666666667 1749.8666666666668,667.9333333333334 1920,687 C 1920,687 1920,1080 1920,1080 Z" fill="#f59f0a" opacity="0.3818181818181818"/><path d="M 0,1080 C 0,1080 0,785 0,785 C 242.8,801.6666666666667 485.6,818.3333333333334 670,815 C 854.4,811.6666666666666 980.4000000000001,788.3333333333333 1179,780 C 1377.6,771.6666666666667 1648.8,778.3333333333334 1920,785 C 1920,785 1920,1080 1920,1080 Z" fill="#f59f0a" opacity="0.43636363636363634"/><path d="M 0,1080 C 0,1080 0,883 0,883 C 276.66666666666663,875.4000000000001 553.3333333333333,867.8000000000001 768,865 C 982.6666666666667,862.1999999999999 1135.3333333333335,864.2 1317,868 C 1498.6666666666665,871.8 1709.3333333333333,877.4 1920,883 C 1920,883 1920,1080 1920,1080 Z" fill="#f59f0a" opacity="0.4909090909090909"/><path d="M 0,1080 C 0,1080 0,981 0,981 C 225.46666666666664,962.5999999999999 450.9333333333333,944.1999999999999 668,949 C 885.0666666666667,953.8000000000001 1093.7333333333333,981.8 1301,991 C 1508.2666666666667,1000.2 1714.1333333333332,990.6 1920,981 C 1920,981 1920,1080 1920,1080 Z" fill="#f59f0a" opacity="0.5454545454545454"/></svg>