<svg width="1920" height="1080" viewBox="0 0 1920 1080" xmlns="http://www.w3.org/2000/svg"><rect width="1920" height="1080" fill="#a412f3"/><path d="M 0,1080 C 0,1080 0,120 0,120 C 197.46666666666664,135.06666666666666 394.9333333333333,150.13333333333335 666,155 C 937.0666666666667,159.86666666666665 1281.7333333333333,154.53333333333333 1503,147 C 1724.2666666666667,139.46666666666667 1822.1333333333332,129.73333333333335 1920,120 C 1920,120 1920,1080 1920,1080 Z" fill="#fc5cff" opacity="0.06666666666666667"/><path d="M 0,1080 C 0,1080 0,240 0,240 C 98.66666666666669,233.33333333333331 197.33333333333337,226.66666666666666 425,218 C 652.6666666666666,209.33333333333334 1009.3333333333333,198.66666666666669 1280,202 C 1550.6666666666667,205.33333333333331 1735.3333333333335,222.66666666666666 1920,240 C 1920,240 1920,1080 1920,1080 Z" fill="#fc5cff" opacity="0.13333333333333333"/><path d="M 0,1080 C 0,1080 0,360 0,360 C 138.2666666666667,355.8666666666667 276.5333333333334,351.7333333333333 498,345 C 719.4666666666666,338.2666666666667 1024.1333333333334,328.93333333333334 1275,331 C 1525.8666666666666,333.06666666666666 1722.9333333333334,346.5333333333333 1920,360 C 1920,360 1920,1080 1920,1080 Z" fill="#fc5cff" opacity="0.2"/><path d="M 0,1080 C 0,1080 0,480 0,480 C 166.93333333333334,503.8666666666667 333.8666666666667,527.7333333333333 502,521 C 670.1333333333333,514.2666666666667 839.4666666666667,476.9333333333334 1076,465 C 1312.5333333333333,453.0666666666666 1616.2666666666667,466.5333333333333 1920,480 C 1920,480 1920,1080 1920,1080 Z" fill="#fc5cff" opacity="0.26666666666666666"/><path d="M 0,1080 C 0,1080 0,600 0,600 C 301.4666666666666,618 602.9333333333332,636 833,634 C 1063.0666666666668,632 1221.7333333333336,610 1391,601 C 1560.2666666666664,592 1740.1333333333332,596 1920,600 C 1920,600 1920,1080 1920,1080 Z" fill="#fc5cff" opacity="0.3333333333333333"/><path d="M 0,1080 C 0,1080 0,720 0,720 C 347.59999999999997,739.7333333333333 695.1999999999999,759.4666666666666 833,750 C 970.8000000000001,740.5333333333334 898.8,701.8666666666668 1045,692 C 1191.2,682.1333333333332 1555.6,701.0666666666666 1920,720 C 1920,720 1920,1080 1920,1080 Z" fill="#fc5cff" opacity="0.4"/><path d="M 0,1080 C 0,1080 0,840 0,840 C 299.73333333333335,852.8 599.4666666666667,865.6 827,866 C 1054.5333333333333,866.4 1209.8666666666668,854.4000000000001 1380,848 C 1550.1333333333332,841.5999999999999 1735.0666666666666,840.8 1920,840 C 1920,840 1920,1080 1920,1080 Z" fill="#fc5cff" opacity="0.4666666666666667"/><path d="M 0,1080 C 0,1080 0,960 0,960 C 251.7333333333333,978.5333333333333 503.4666666666666,997.0666666666667 669,990 C 834.5333333333334,982.9333333333333 913.8666666666668,950.2666666666667 1108,941 C 1302.1333333333332,931.7333333333333 1611.0666666666666,945.8666666666667 1920,960 C 1920,960 1920,1080 1920,1080 Z" fill="#fc5cff" opacity="0.5333333333333333"/></svg>