<svg width="1920" height="1080" viewBox="0 0 1920 1080" xmlns="http://www.w3.org/2000/svg"><rect width="1920" height="1080" fill="#d447f0"/><path d="M 0,1080 C 0,1080 0,120 0,120 C 191.86666666666667,130.53333333333333 383.73333333333335,141.06666666666666 610,146 C 836.2666666666667,150.93333333333334 1096.9333333333332,150.26666666666665 1321,145 C 1545.0666666666668,139.73333333333335 1732.5333333333333,129.86666666666667 1920,120 C 1920,120 1920,1080 1920,1080 Z" fill="#5cb8ff" opacity="0.06666666666666667"/><path d="M 0,1080 C 0,1080 0,240 0,240 C 84.80000000000001,240.93333333333334 169.60000000000002,241.86666666666665 449,238 C 728.4,234.13333333333335 1202.4,225.46666666666667 1480,225 C 1757.6,224.53333333333333 1838.8,232.26666666666665 1920,240 C 1920,240 1920,1080 1920,1080 Z" fill="#5cb8ff" opacity="0.13333333333333333"/><path d="M 0,1080 C 0,1080 0,360 0,360 C 318,345.20000000000005 636,330.40000000000003 823,329 C 1010,327.59999999999997 1066,339.6 1227,347 C 1388,354.4 1654,357.2 1920,360 C 1920,360 1920,1080 1920,1080 Z" fill="#5cb8ff" opacity="0.2"/><path d="M 0,1080 C 0,1080 0,480 0,480 C 280.40000000000003,494.4 560.8000000000001,508.8 763,500 C 965.1999999999999,491.2 1089.2,459.2 1269,452 C 1448.8,444.8 1684.4,462.4 1920,480 C 1920,480 1920,1080 1920,1080 Z" fill="#5cb8ff" opacity="0.26666666666666666"/><path d="M 0,1080 C 0,1080 0,600 0,600 C 196,585.8666666666667 392,571.7333333333333 612,581 C 832,590.2666666666667 1076,622.9333333333334 1298,630 C 1520,637.0666666666666 1720,618.5333333333333 1920,600 C 1920,600 1920,1080 1920,1080 Z" fill="#5cb8ff" opacity="0.3333333333333333"/><path d="M 0,1080 C 0,1080 0,720 0,720 C 323.33333333333326,729.2 646.6666666666665,738.4 839,731 C 1031.3333333333335,723.6 1092.6666666666667,699.6 1251,695 C 1409.3333333333333,690.4 1664.6666666666665,705.2 1920,720 C 1920,720 1920,1080 1920,1080 Z" fill="#5cb8ff" opacity="0.4"/><path d="M 0,1080 C 0,1080 0,840 0,840 C 278.1333333333333,827.7333333333333 556.2666666666667,815.4666666666666 799,828 C 1041.7333333333333,840.5333333333334 1249.0666666666668,877.8666666666668 1430,884 C 1610.9333333333332,890.1333333333332 1765.4666666666667,865.0666666666666 1920,840 C 1920,840 1920,1080 1920,1080 Z" fill="#5cb8ff" opacity="0.4666666666666667"/><path d="M 0,1080 C 0,1080 0,960 0,960 C 154.53333333333336,980.5333333333333 309.0666666666667,1001.0666666666667 493,1004 C 676.9333333333333,1006.9333333333333 890.2666666666667,992.2666666666667 1133,982 C 1375.7333333333333,971.7333333333333 1647.8666666666668,965.8666666666667 1920,960 C 1920,960 1920,1080 1920,1080 Z" fill="#5cb8ff" opacity="0.5333333333333333"/></svg>