<svg width="1920" height="1080" viewBox="0 0 1920 1080" xmlns="http://www.w3.org/2000/svg"><rect width="1920" height="1080" fill="#e3cb31"/><path d="M 0,1080 C 0,1080 0,98 0,98 C 75.86666666666667,83.60000000000001 151.73333333333335,69.20000000000002 435,80 C 718.2666666666667,90.79999999999998 1208.9333333333334,126.79999999999998 1491,134 C 1773.0666666666666,141.20000000000002 1846.5333333333333,119.60000000000001 1920,98 C 1920,98 1920,1080 1920,1080 Z" fill="#fde58b" opacity="0.05454545454545454"/><path d="M 0,1080 C 0,1080 0,196 0,196 C 73.86666666666667,215.33333333333334 147.73333333333335,234.66666666666669 435,227 C 722.2666666666667,219.33333333333331 1222.9333333333334,184.66666666666666 1506,175 C 1789.0666666666666,165.33333333333334 1854.5333333333333,180.66666666666669 1920,196 C 1920,196 1920,1080 1920,1080 Z" fill="#fde58b" opacity="0.10909090909090909"/><path d="M 0,1080 C 0,1080 0,294 0,294 C 346.66666666666674,289.20000000000005 693.3333333333335,284.40000000000003 878,279 C 1062.6666666666665,273.59999999999997 1085.3333333333333,267.59999999999997 1232,270 C 1378.6666666666667,272.40000000000003 1649.3333333333335,283.20000000000005 1920,294 C 1920,294 1920,1080 1920,1080 Z" fill="#fde58b" opacity="0.16363636363636364"/><path d="M 0,1080 C 0,1080 0,392 0,392 C 66.40000000000003,379.3333333333333 132.80000000000007,366.66666666666663 421,370 C 709.1999999999999,373.33333333333337 1219.2,392.6666666666667 1506,399 C 1792.8,405.3333333333333 1856.4,398.66666666666663 1920,392 C 1920,392 1920,1080 1920,1080 Z" fill="#fde58b" opacity="0.21818181818181817"/><path d="M 0,1080 C 0,1080 0,490 0,490 C 166.93333333333334,504.1333333333333 333.8666666666667,518.2666666666667 501,520 C 668.1333333333333,521.7333333333333 835.4666666666667,511.0666666666667 1072,504 C 1308.5333333333333,496.9333333333333 1614.2666666666667,493.46666666666664 1920,490 C 1920,490 1920,1080 1920,1080 Z" fill="#fde58b" opacity="0.2727272727272727"/><path d="M 0,1080 C 0,1080 0,589 0,589 C 129.33333333333331,605.1333333333333 258.66666666666663,621.2666666666667 499,612 C 739.3333333333334,602.7333333333333 1090.6666666666667,568.0666666666666 1346,560 C 1601.3333333333333,551.9333333333334 1760.6666666666665,570.4666666666667 1920,589 C 1920,589 1920,1080 1920,1080 Z" fill="#fde58b" opacity="0.32727272727272727"/><path d="M 0,1080 C 0,1080 0,687 0,687 C 86.93333333333334,669.6666666666666 173.86666666666667,652.3333333333333 433,651 C 692.1333333333333,649.6666666666667 1123.4666666666667,664.3333333333334 1400,673 C 1676.5333333333333,681.6666666666666 1798.2666666666667,684.3333333333333 1920,687 C 1920,687 1920,1080 1920,1080 Z" fill="#fde58b" opacity="0.3818181818181818"/><path d="M 0,1080 C 0,1080 0,785 0,785 C 211.06666666666666,807.5333333333333 422.1333333333333,830.0666666666667 601,819 C 779.8666666666667,807.9333333333333 926.5333333333333,763.2666666666667 1141,752 C 1355.4666666666667,740.7333333333333 1637.7333333333333,762.8666666666667 1920,785 C 1920,785 1920,1080 1920,1080 Z" fill="#fde58b" opacity="0.43636363636363634"/><path d="M 0,1080 C 0,1080 0,883 0,883 C 192.53333333333336,900.3333333333333 385.0666666666667,917.6666666666666 640,914 C 894.9333333333333,910.3333333333334 1212.2666666666667,885.6666666666667 1436,877 C 1659.7333333333333,868.3333333333333 1789.8666666666668,875.6666666666666 1920,883 C 1920,883 1920,1080 1920,1080 Z" fill="#fde58b" opacity="0.4909090909090909"/><path d="M 0,1080 C 0,1080 0,981 0,981 C 133.86666666666667,995.4000000000001 267.73333333333335,1009.8000000000001 525,1007 C 782.2666666666667,1004.1999999999999 1162.9333333333334,984.2 1416,977 C 1669.0666666666666,969.8 1794.5333333333333,975.4 1920,981 C 1920,981 1920,1080 1920,1080 Z" fill="#fde58b" opacity="0.5454545454545454"/></svg>